<mxfile host="app.diagrams.net" modified="2021-06-17T02:38:10.445Z" agent="5.0 (Windows NT 10.0; Win64; x64) AppleWebKit/537.36 (KHTML, like Gecko) Chrome/89.0.4389.72 Safari/537.36" etag="X-x7fUi0-FjEZ5vHy5PO" version="14.7.10" type="github">
  <diagram id="PCnEx58GrlcV4NnSWMks" name="Page-1">
    <mxGraphModel dx="1422" dy="738" grid="1" gridSize="10" guides="1" tooltips="1" connect="1" arrows="1" fold="1" page="1" pageScale="1" pageWidth="827" pageHeight="1169" math="0" shadow="0">
      <root>
        <mxCell id="0" />
        <mxCell id="1" parent="0" />
        <mxCell id="kPYFgqEPnzr1Xzarvb6m-1" value="" style="rounded=0;whiteSpace=wrap;html=1;" vertex="1" parent="1">
          <mxGeometry x="380" y="310" width="120" height="60" as="geometry" />
        </mxCell>
        <mxCell id="kPYFgqEPnzr1Xzarvb6m-2" value="" style="ellipse;whiteSpace=wrap;html=1;aspect=fixed;" vertex="1" parent="1">
          <mxGeometry x="400" y="480" width="80" height="80" as="geometry" />
        </mxCell>
        <mxCell id="kPYFgqEPnzr1Xzarvb6m-3" value="Vertical Tree Layout" style="swimlane;startSize=20;horizontal=1;childLayout=treeLayout;horizontalTree=0;resizable=0;containerType=tree;" vertex="1" parent="1">
          <mxGeometry x="250" width="280" height="190" as="geometry" />
        </mxCell>
        <mxCell id="kPYFgqEPnzr1Xzarvb6m-4" value="Root" style="whiteSpace=wrap;html=1;" vertex="1" parent="kPYFgqEPnzr1Xzarvb6m-3">
          <mxGeometry x="90" y="40" width="100" height="40" as="geometry" />
        </mxCell>
        <mxCell id="kPYFgqEPnzr1Xzarvb6m-5" value="Child 1" style="whiteSpace=wrap;html=1;" vertex="1" parent="kPYFgqEPnzr1Xzarvb6m-3">
          <mxGeometry x="20" y="130" width="100" height="40" as="geometry" />
        </mxCell>
        <mxCell id="kPYFgqEPnzr1Xzarvb6m-6" value="" style="edgeStyle=elbowEdgeStyle;elbow=vertical;html=1;rounded=0;" edge="1" parent="kPYFgqEPnzr1Xzarvb6m-3" source="kPYFgqEPnzr1Xzarvb6m-4" target="kPYFgqEPnzr1Xzarvb6m-5">
          <mxGeometry relative="1" as="geometry" />
        </mxCell>
        <mxCell id="kPYFgqEPnzr1Xzarvb6m-7" value="Child 2" style="whiteSpace=wrap;html=1;" vertex="1" parent="kPYFgqEPnzr1Xzarvb6m-3">
          <mxGeometry x="160" y="130" width="100" height="40" as="geometry" />
        </mxCell>
        <mxCell id="kPYFgqEPnzr1Xzarvb6m-8" value="" style="edgeStyle=elbowEdgeStyle;elbow=vertical;html=1;rounded=0;" edge="1" parent="kPYFgqEPnzr1Xzarvb6m-3" source="kPYFgqEPnzr1Xzarvb6m-4" target="kPYFgqEPnzr1Xzarvb6m-7">
          <mxGeometry relative="1" as="geometry" />
        </mxCell>
      </root>
    </mxGraphModel>
  </diagram>
</mxfile>
